<?xml version="1.0" encoding="utf-8"?>
<!-- Generator: Adobe Illustrator 17.1.0, SVG Export Plug-In . SVG Version: 6.00 Build 0)  -->
<!DOCTYPE svg PUBLIC "-//W3C//DTD SVG 1.1//EN" "http://www.w3.org/Graphics/SVG/1.1/DTD/svg11.dtd">
<svg version="1.1" id="mobile-shop" xmlns="http://www.w3.org/2000/svg" xmlns:xlink="http://www.w3.org/1999/xlink" x="0px"
	 y="0px" viewBox="0 0 1010 1010" enable-background="new 0 0 1010 1010" xml:space="preserve">
<g id="mobile-shop-mobile-shop">
	<path id="mobile-shop-label" fill="#FFB933" d="M1010,505c0,278.9043-226.0859,505-505,505C226.106,1010,0,783.9043,0,505
		S226.106,0,505,0C783.9141,0,1010,226.0957,1010,505z"/>
	<g id="mobile-shop-mobile-shop_1_">
		<polyline fill="#3BAFDA" points="298.1279,664.8643 298.1279,386.2852 711.873,386.2852 711.873,553.0537 711.873,664.8838 		"/>
		<path fill="#FFFFFF" d="M711.873,664.8838v112.8164H316.9268c-10.376,0-18.7989-8.4131-18.7989-18.7998v-94.0361"/>
		<path fill="#BDC3C7" d="M298.1279,386.2852V251.1191c0-10.4057,8.4229-18.8193,18.7989-18.8193h376.1464
			c10.3956,0,18.7998,8.4136,18.7998,18.8193v135.1661"/>
		<g>
			<path fill="#454545" d="M711.873,787.7998H298.1279c-5.5781,0-10.1006-4.5273-10.1006-10.0996V251.1191
				c0-15.9492,12.9659-28.9189,28.8995-28.9189h376.1464c15.9346,0,28.8995,12.9697,28.8995,28.9189v523.6016
				c0,0.5137-0.0391,1.0068-0.1085,1.4902c0.0693,0.4825,0.1085,0.9766,0.1085,1.4893
				C721.9727,783.2725,717.4502,787.7998,711.873,787.7998L711.873,787.7998z M308.2275,767.5996h393.545V251.1191
				c0-4.8134-3.9014-8.7192-8.6993-8.7192H316.9268c-4.7979,0-8.6993,3.9058-8.6993,8.7192V767.5996L308.2275,767.5996z"/>
		</g>
		<g>
			<g>
				<path fill="#FC6E51" d="M241.1182,391.9863v63.3321c0,27.3613,25.4272,52.7783,52.7685,52.7783
					c27.3408,0,52.7686-25.417,52.7686-52.7783c0,27.3613,25.4472,52.7783,52.8076,52.7783
					c27.3213,0,52.7685-25.417,52.7685-52.7783c0,27.3613,25.4473,52.7783,52.7686,52.7783
					c27.3408,0,52.7881-25.417,52.7881-52.7783c0,27.3613,25.4473,52.7783,52.7685,52.7783
					c27.3615,0,52.7891-25.417,52.7891-52.7783c0,27.3613,25.4268,52.7783,52.7676,52.7783c27.3418,0,52.789-25.417,52.789-52.7783
					v-63.3321H241.1182z"/>
				<path fill="#454545" d="M716.1133,518.1973c-21.2354,0-41.2481-12.4873-52.7676-30.1817
					c-11.5254,17.6944-31.5478,30.1817-52.7891,30.1817c-21.2353,0-41.248-12.4873-52.7685-30.1817
					C546.2632,505.71,526.2407,518.1973,505,518.1973c-21.2354,0-41.248-12.4873-52.7686-30.1817
					c-11.5205,17.6944-31.5327,30.1817-52.7685,30.1817c-21.25,0-41.2778-12.4873-52.8027-30.1914
					c-11.5254,17.7041-31.5381,30.1914-52.7735,30.1914c-32.9043,0-62.8691-29.9746-62.8691-62.8789v-73.4317H779.002v73.4317
					C779.002,488.2227,749.0273,518.1973,716.1133,518.1973L716.1133,518.1973z M673.4453,455.3184
					c0,21.9355,20.7373,42.6787,42.668,42.6787c21.9414,0,42.6885-20.7432,42.6885-42.6787v-53.232h-507.584v53.232
					c0,21.9355,20.7373,42.6787,42.6689,42.6787c21.9307,0,42.668-20.7432,42.668-42.6787h20.2002
					c0,21.9355,20.7573,42.6787,42.708,42.6787c21.9311,0,42.6689-20.7432,42.6689-42.6787h20.1997
					c0,21.9355,20.7378,42.6787,42.6685,42.6787c21.9409,0,42.6885-20.7432,42.6885-42.6787h20.2002
					c0,21.9355,20.7373,42.6787,42.6679,42.6787c21.9414,0,42.6885-20.7432,42.6885-42.6787H673.4453L673.4453,455.3184z"/>
			</g>
			<g>
				<polygon fill="#FFFFFF" points="705.5605,286.4199 304.46,286.4199 241.1182,367.042 241.1182,391.9863 768.9023,391.9863 
					768.9023,367.042 				"/>
				<path fill="#454545" d="M779.002,402.0864H231.0176v-38.5356l68.5351-87.231h410.9141l68.5352,87.231V402.0864L779.002,402.0864
					z M251.2178,381.8867h507.584v-11.353l-58.1485-74.0142H309.3672l-58.1494,74.0142V381.8867L251.2178,381.8867z"/>
			</g>
		</g>
		<g>
			<polygon fill="#454545" points="704.5146,674.9639 298.1279,674.9639 298.1279,654.7637 704.5146,654.7637 704.5146,674.9639 			
				"/>
		</g>
		<path fill="#454545" d="M523.8193,721.2822c0,10.3954-8.4433,18.8096-18.8193,18.8096c-10.3955,0-18.7993-8.4141-18.7993-18.8096
			c0-10.3965,8.4038-18.8095,18.7993-18.8095C515.376,702.4727,523.8193,710.8857,523.8193,721.2822z"/>
	</g>
</g>
</svg>
